<?xml version="1.0" encoding="UTF-8"?>
<!DOCTYPE svg PUBLIC "-//W3C//DTD SVG 1.1//EN" "http://www.w3.org/Graphics/SVG/1.1/DTD/svg11.dtd">
<!-- Creator: CorelDRAW X7 -->
<svg xmlns="http://www.w3.org/2000/svg" xml:space="preserve" width="2.1251cm" height="0.5249cm" version="1.1" style="shape-rendering:geometricPrecision; text-rendering:geometricPrecision; image-rendering:optimizeQuality; fill-rule:evenodd; clip-rule:evenodd"
viewBox="0 0 2125 525"
 xmlns:xlink="http://www.w3.org/1999/xlink">
 <defs>
  <style type="text/css">
   <![CDATA[
    .fil0 {fill:#E41D31}
    .fil2 {fill:#B32143}
    .fil3 {fill:#262826}
    .fil1 {fill:#393185}
   ]]>
  </style>
 </defs>
 <g id="Слой_x0020_1">
  <metadata id="CorelCorpID_0Corel-Layer"/>
  <path class="fil0" d="M1053 203l0 0 -23 0 3 -5 49 0 -1 5 -28 0 0 0zm-19 -9l2 -6 48 0 -1 6 -49 0zm4 -9l2 -6 46 0 -1 6 -47 0zm3 -9l1 -4 45 0 -1 4 -45 0zm10 31l-2 6 -22 0 2 -6 22 0zm30 0l-1 6 -29 0 1 -6 29 0zm-33 9l-3 6 -22 0 3 -6 22 0zm31 0l-1 6 -29 0 1 -6 29 0zm-35 9l-3 6 -21 0 2 -6 22 0zm33 0l-1 6 -30 0 1 -2 1 -4 29 0zm-37 9l-3 6 -21 0 3 -6 21 0zm36 0l-1 6 -30 0 1 -6 30 0zm-40 9l-3 6 -20 0 2 -6 21 0zm38 0l-1 6 -30 0 1 -6 30 0zm-42 10l-3 5 -40 0 0 -5 22 0 0 1 0 -1 21 0zm-43 -4l0 -6 22 0 0 6 -22 0zm-1 -9l0 -6 22 0 0 6 -22 0zm0 -9l-1 -6 23 0 0 6 -22 0zm-1 -9l0 -6 23 0 0 6 -23 0zm0 -9l-1 -6 24 0 0 6 -23 0zm-1 -10l0 0 0 0 -28 0 1 -5 50 0 0 5 -23 0zm-26 -9l1 -6 48 0 0 6 -49 0zm1 -9l1 -6 47 0 0 6 -48 0zm2 -9l1 -4 45 0 0 4 -46 0zm23 31l-1 6 -29 0 1 -6 29 0zm-2 9l0 6 -30 0 2 -6 28 0zm-1 9l-1 6 -29 0 1 -6 29 0zm-1 9l-1 6 -30 0 1 -6 30 0zm-2 9l-1 6 -30 0 1 -6 30 0zm-2 10l-1 5 -29 0 1 -5 29 0zm94 0l-1 5 -30 0 1 -5 30 0zm-44 9l-2 6 -36 0 0 -6 38 0zm-51 0l-1 6 -30 0 1 -6 30 0zm94 0l-2 6 -29 0 1 -6 30 0zm-47 9l-2 6 -32 0 0 -6 34 0zm-49 0l-1 6 -30 0 1 -6 30 0zm94 0l-1 6 -30 0 1 -6 30 0zm-49 9l-2 6 -27 0 0 -6 29 0zm-47 0l-1 6 -29 0 1 -6 29 0zm94 0l-1 6 -30 0 1 -6 30 0zm-51 9l-2 6 -22 0 -1 -6 25 0zm-44 0l-1 6 -30 0 1 -6 30 0zm93 0l-1 6 -29 0 1 -6 29 0zm-53 9l-1 5 -19 0 0 -5 20 0zm-42 0l-1 5 -30 0 1 -5 30 0zm94 0l-1 5 -30 0 1 -5 30 0zm123 -49c0,0 0,0 0,0l-30 0 1 -6 30 0 -1 6zm-29 -9l2 -6 30 0 -1 6 -31 0zm2 -9l1 -6 31 0c0,1 -1,3 -1,4l0 2 -31 0zm2 -9l1 -5c0,0 0,-1 0,-1l30 0c0,2 0,4 -1,6l-30 0zm1 -9c0,-2 0,-3 0,-4 0,-1 0,-2 0,-2l31 0c0,0 0,0 0,0 0,2 0,4 -1,6l-30 0zm0 -10c0,-1 0,-2 -1,-3 0,-1 0,-2 0,-2l32 0c0,2 0,3 0,5l-31 0zm-4 -9c-2,-1 -5,-2 -8,-2 -4,0 -7,1 -10,2l-34 0c1,-2 2,-4 3,-6l82 0c0,1 0,1 0,1 0,2 1,3 1,5l-34 0zm-46 -9c0,-1 1,-1 2,-2 1,-1 2,-3 4,-4l67 0c2,2 3,4 4,6l-77 0zm10 -9c4,-3 8,-4 12,-6 4,-1 11,-2 20,-2 10,0 19,2 25,6 1,1 2,1 3,2l-60 0zm14 22c-2,1 -3,3 -4,5l-30 0c1,-2 2,-4 2,-5l32 0zm-6 9c0,2 -1,4 -1,6l-29 0c1,-2 1,-4 1,-6l29 0zm-2 9l-1 6 -29 0c0,-2 1,-3 1,-5 0,0 0,-1 0,-1l29 0zm-2 9l-1 6 -30 0c1,0 1,-2 2,-6l29 0zm-1 9l-2 6 -30 0 1 -6 31 0zm-2 9l-1 6 -31 0 2 -6 30 0zm63 10c-1,2 -1,4 -2,5l-30 0 1 -5 31 0zm-65 0l-1 5 -30 0c0,-1 0,-3 1,-5l30 0zm63 9c-1,2 -1,4 -2,6l-30 0c0,-2 1,-4 1,-6l31 0zm-65 0c0,2 0,4 0,6l-30 0c0,-2 0,-4 0,-6l30 0zm62 9c0,0 0,0 0,1 -1,1 -2,3 -2,5l-32 0c1,-2 3,-4 4,-6l30 0zm-62 0c0,2 1,4 2,6l-33 0c0,-1 0,-3 0,-4 0,-1 0,-1 0,-2l31 0zm58 9c-1,2 -2,4 -3,6l-84 0c0,-2 -1,-4 -1,-6l34 0c3,2 6,3 10,3 4,0 7,-1 10,-3l34 0zm-6 9c-2,2 -4,4 -6,6l-70 0c-1,-2 -3,-4 -4,-6l80 0zm-10 9c-2,2 -4,3 -6,3 -7,4 -16,5 -26,5 -11,0 -20,-1 -26,-5 -2,-1 -3,-1 -5,-3l63 0zm128 -35c-1,2 -1,3 -1,5l-31 0c0,-2 1,-3 1,-5 0,0 0,-1 0,-1l31 0c0,0 0,1 0,1zm-30 -5c0,-2 0,-4 -1,-5l32 0c0,0 0,1 0,1 0,2 -1,3 -1,4l-30 0zm-3 -9c-2,-2 -5,-3 -9,-3l-11 0 -1 3 -30 0 1 -6 82 0c1,2 1,3 1,4 0,1 0,1 0,2l-33 0zm-49 -9l1 -6 73 0c1,1 2,2 3,2 1,1 2,3 3,4l-80 0zm2 -9l1 -6 77 0c-2,2 -4,4 -7,6l-71 0zm1 -9l1 -6 30 0 -1 6 -30 0zm2 -9l1 -6 30 0 -1 6 -30 0zm2 -10l1 -5 30 0 -1 5 -30 0zm1 -9l1 -6 80 0c0,2 0,4 1,6l-82 0zm2 -9l1 -6 72 0c0,1 1,1 1,1 2,2 3,3 3,5l-77 0zm2 -9l0 -4 47 0c8,0 14,2 19,4l-66 0zm78 22c0,1 -1,3 -1,5l-30 0c0,-1 0,-3 -1,-4 0,-1 0,-1 0,-1l32 0zm-2 9c0,2 -1,4 -1,6l-30 0c1,-2 1,-3 1,-5 1,0 1,-1 1,-1l29 0zm-2 9c-1,2 -2,4 -3,6l-32 0c0,0 1,-1 1,-1 2,-1 3,-3 4,-5l30 0zm-59 37l-1 5 -29 0 1 -5 29 0zm-1 9l-1 6 -30 0 1 -6 30 0zm54 9c-1,2 -2,4 -3,6l-32 0c1,-2 3,-4 4,-6l31 0zm-56 0l-1 6 -30 0 1 -6 30 0zm52 9c-1,1 -1,2 -2,3 0,1 -1,2 -2,3l-81 0 2 -6 29 0 0 1 12 0c2,0 4,0 5,-1l37 0zm-6 9c-2,2 -4,4 -7,6l-73 0 1 -6 79 0zm-12 9c-3,2 -5,3 -8,3 -4,1 -7,2 -12,2l-50 0 1 -5 69 0zm64 5l-30 0 1 -5 30 0 -1 5zm-28 -8l1 -6 30 0 -1 6 -30 0zm1 -9l2 -6 29 0 -1 6 -30 0zm2 -9l1 -6 30 0 -1 6 -30 0zm2 -9l1 -6 30 0 -1 6 -30 0zm2 -10l1 -5 29 0 -1 5 -29 0zm1 -9l1 -6 30 0 -1 6 -30 0zm2 -9l1 -6 30 0 -1 6 -30 0zm2 -9l1 -6 30 0 -2 6 -29 0zm1 -9l1 -6 30 0 -1 6 -30 0zm2 -9l1 -6 30 0 -1 6 -30 0zm2 -10l1 -5 30 0 -1 5 -30 0zm1 -9l2 -6 29 0 -1 6 -30 0zm2 -9l1 -6 30 0 -1 6 -30 0zm2 -9l0 -4 30 0 0 4 -30 0zm106 127l-78 0 1 -5 78 0 -1 5zm-77 -8l1 -6 78 0 -1 6 -78 0zm2 -9l1 -6 29 0 0 1 49 0 -1 5 -78 0zm2 -9l1 -6 29 0 -1 6 -29 0zm1 -9l1 -6 30 0 -1 6 -30 0zm2 -10l1 -5 29 0 -1 5 -29 0zm2 -9l1 -6 29 0 -1 6 -29 0zm1 -9l1 -6 30 0 -1 6 -30 0zm2 -9l1 -6 30 0 -2 6 -29 0zm2 -9l1 -6 29 0 -1 6 -29 0zm1 -9l2 -6 29 0 -1 6 -30 0zm2 -10l1 -5 30 0 -1 5 -30 0zm2 -9l1 -6 29 0 -1 6 -29 0zm2 -9l1 -6 29 0 -1 6 -29 0zm1 -9l1 -4 29 0 0 4 -30 0zm145 127l-76 0 0 -5 77 0 -1 5zm-75 -8l1 -6 77 0 -1 6 -77 0zm2 -9l1 -6 30 0 0 1 47 0 -1 5 -77 0zm1 -9l1 -6 30 0 -1 6 -30 0zm2 -9l1 -6 30 0 -1 6 -30 0zm2 -10l1 -5 30 0 -1 5 -30 0zm1 -9l2 -6 73 0 -1 2 -43 0 -1 4 -30 0zm2 -9l1 -6 73 0 -1 6 -73 0zm2 -9l1 -6 73 0 -1 6 -73 0zm2 -9l1 -6 30 0 -2 6 -29 0zm1 -9l1 -6 30 0 -1 6 -30 0zm2 -10l1 -5 30 0 -1 5 -30 0zm2 -9l1 -6 77 0 -1 6 -77 0zm1 -9l1 -6 77 0 -1 6 -77 0zm2 -9l1 -4 77 0 -1 4 -77 0z"/>
  <path class="fil1" d="M1848 387l18 0 0 18 -18 0 0 -18zm-175 -61l60 0c7,0 13,7 13,14l0 12 -13 0 0 -12 -58 0c0,6 0,8 0,15 16,0 51,3 60,4 8,1 11,2 11,7l0 25c0,8 -6,14 -13,14l-60 0c-7,0 -13,-6 -13,-14l0 -13 15 0 0 14 58 0c0,-7 0,-13 0,-20 -16,-1 -49,-3 -60,-4 -9,-1 -13,-7 -13,-16l0 -12c0,-7 6,-14 13,-14zm105 0l103 0c6,0 11,5 11,12l0 67 -15 0 0 -65 -40 0 0 65 -15 0 0 -65 -40 0 0 65 -15 0 0 -67c0,-7 5,-12 11,-12zm-219 0l68 0c8,0 14,7 14,14l0 12 -13 0 0 -12 -69 0 0 51 69 0 0 -13 -38 0 0 -12 51 0 0 25c0,8 -6,14 -14,14l-68 0c-7,0 -13,-6 -13,-14l0 -51c0,-7 6,-14 13,-14zm233 26l18 0 0 18 -18 0 0 -18zm0 35l18 0 0 18 -18 0 0 -18z"/>
  <polygon class="fil0" points="1909,326 1927,326 1927,344 1909,344 "/>
  <path class="fil2" d="M807 357l69 0c360,0 655,4 655,9l0 0c0,4 -295,8 -655,8l-69 0c-178,0 -339,-1 -458,-2 -14,-4 -27,-8 -40,-12 120,-2 299,-3 498,-3zm-534 14c-76,-2 -121,-3 -121,-5l0 0c0,-2 35,-3 94,-5 9,3 18,7 27,10z"/>
  <path class="fil3" d="M295 265c-1,7 -3,14 -7,20 -3,6 -8,11 -14,15 -3,1 -7,3 -10,4 -4,1 -8,1 -12,1l-50 0 24 -130 47 0c12,0 20,2 25,8 5,5 7,13 5,23 -2,10 -5,16 -9,21 -3,3 -6,6 -10,8 3,1 5,2 6,3 3,3 5,7 6,11 0,2 0,5 0,8 0,2 0,5 -1,8zm-23 -54c1,-5 1,-8 0,-10 0,-2 -2,-3 -4,-3 -1,-1 -5,-1 -9,-1l-7 0 -5 29 7 0c5,0 9,-1 12,-3 3,-2 5,-6 6,-12zm-7 54c2,-11 -2,-17 -11,-17l-12 0 -6 35 12 0c9,0 15,-6 17,-18zm134 40l-32 0 0 -32 -28 0 -13 32 -31 0 58 -130 38 0 8 130zm-32 -105l-19 51 18 0 1 -51zm135 65c-1,7 -4,14 -7,20 -4,6 -9,11 -15,15 -3,1 -6,3 -10,4 -3,1 -7,1 -11,1l-50 0 24 -130 47 0c11,0 20,2 25,8 4,5 6,13 4,23 -2,10 -4,16 -8,21 -3,3 -6,6 -10,8 2,1 4,2 6,3 3,3 5,7 5,11 1,2 1,5 1,8 0,2 -1,5 -1,8zm-23 -54c0,-5 0,-8 0,-10 -1,-2 -2,-3 -4,-3 -2,-1 -5,-1 -9,-1l-8 0 -5 29 7 0c6,0 10,-1 13,-3 3,-2 5,-6 6,-12zm-8 54c3,-11 -1,-17 -11,-17l-11 0 -6 35 12 0c9,0 14,-6 16,-18zm71 40l-29 0 24 -130 30 0 -25 130zm100 0l-78 0 24 -130 30 0 -21 108 49 0 -4 22zm118 -54c-2,10 -3,17 -5,23 -3,6 -6,12 -10,17 -4,5 -9,10 -16,13 -7,3 -16,4 -27,4 -10,0 -19,-1 -25,-4 -6,-3 -10,-8 -12,-14 -2,-4 -3,-10 -3,-15 0,-5 1,-12 3,-21l4 -21c0,0 2,-4 4,-14 2,-9 4,-15 5,-19 3,-7 6,-11 9,-15 7,-6 14,-10 20,-12 5,-2 12,-3 21,-3 10,0 19,2 25,6 6,4 9,9 11,15 2,6 3,12 3,18 0,6 -1,13 -3,22l-4 20zm-32 12l8 -44c0,-3 0,-5 0,-8 0,-3 0,-6 -1,-9 -1,-5 -5,-8 -11,-8 -12,0 -19,8 -22,23l-8 46c-3,15 1,22 13,22 11,0 18,-7 21,-22zm134 42l-30 0 -20 -87 -13 87 -29 0 24 -130 30 0 19 88c2,-10 4,-21 6,-33 1,-13 3,-25 5,-37 1,-12 2,-18 2,-18l30 0 -24 130z"/>
  <polygon class="fil0" points="896,236 934,236 934,247 896,247 "/>
  <path class="fil1" d="M1710 277l0 0 -7 0 -14 -1 -13 -3 -13 -4 -13 -6 -11 -6 -11 -7 -10 -8 -9 -10 -9 -10 -7 -11 -7 -11 -5 -13 -4 -13 -3 -13 -1 -20 0 -8 1 -13 0 6c-233,-44 -521,-71 -800,-71 -525,0 -824,98 -665,217 160,120 719,217 1244,217 526,0 825,-97 665,-217 -39,-29 -101,-57 -181,-82l-4 10 -6 11 -8 11 -8 10 -9 10 -10 8 -11 7 -12 6 -12 6 -13 4 -13 3 -21 1zm-133 -171l4 -13 5 -12 7 -11 7 -11 9 -10 9 -10 10 -8 11 -7 11 -7 13 -5 13 -4 13 -3 21 -1 7 0 14 1 13 3 13 4 12 5 12 7 11 7 10 8 9 10 8 10 8 11 6 11 5 12 4 13 3 14 2 21 -1 6 -1 14 -2 9c97,31 173,66 222,102 185,139 -113,253 -664,253 -552,0 -1153,-114 -1338,-253 -186,-139 112,-253 664,-253 293,0 600,32 851,83l-1 4zm133 167l0 0 -7 0 -13 -1 -13 -3 -13 -4 -12 -5 -11 -6 -11 -7 -10 -9 -8 -9 -8 -9 -8 -11 -6 -11 -5 -12 -4 -13 -2 -12 -2 -21 0 -6 2 -14 2 -13 4 -12 5 -12 6 -12 8 -10 8 -10 8 -9 10 -8 11 -7 11 -6 12 -6 13 -3 13 -3 20 -1 6 0 14 1 13 3 12 3 12 6 11 6 11 7 10 8 9 9 8 10 7 10 6 12 5 12 4 12 3 13 2 20 0 7 -2 14 -3 12 -4 13 -5 12 -6 11 -7 11 -8 9 -9 9 -10 9 -11 7 -11 6 -12 5 -12 4 -13 3 -20 1z"/>
  <path class="fil1" d="M1643 101l0 1 0 0 1 1 0 0 1 1 0 0 0 1 1 0 0 0 1 1 0 0 0 1 0 0 0 1 5 3 -1 7 107 0 -4 -2 -2 -2 -3 -2 -1 -3 0 -4 -3 -4 -2 0 1 2 -1 2 -1 -1 -2 -3 -78 0 0 4 0 2 0 2 -4 -1 0 -1 0 -2 0 -2 -1 -2 -14 0zm158 17l1 0 2 -2 -1 -1 -3 0 -1 0 0 1 -3 0 0 1 0 1 5 0 32 0 0 4 -50 0 0 2 0 2 0 3 -6 0 0 -2 0 -2 -2 0 -3 -2 -2 -1 -120 0 0 5 -3 4 0 1 0 0 -1 1 0 0 -1 1 0 0 -1 1 0 0 -1 1 -1 0 0 0 -1 0 0 1 -1 0 0 1 0 0 152 0 1 -1 -2 -2 -2 0 -2 0 -1 0 -4 -2 -2 -2 11 -1 3 3 2 0 0 2 1 1 1 -3 1 -2 16 0 2 5 1 0 4 1 1 1 12 0 -1 4 -1 0 0 2 1 2 0 5 0 5 -1 5 -1 5 -1 5 -2 5 -1 5 -2 5 -2 4 -2 5 -2 4 -2 4 -3 4 -3 5 -3 4 -2 1 -1 2 -3 4 -84 0 0 0 -1 7 -3 4 -1 2 -2 2 0 2 72 0 -5 3 -137 0 -5 -3 59 0 0 -1 -1 -1 -1 -1 1 -1 0 -1 -1 0 -2 0 -2 -1 0 -2 -11 0 -2 2 -2 1 -3 0 -1 1 -2 1 -2 2 -1 0 -1 -2 -1 -1 0 -2 -1 -2 -1 -3 -1 -3 -1 -3 -42 0 -3 -4 45 0 0 0 0 -5 1 -2 7 -4 1 -1 2 -1 0 -2 0 -2 -68 0 -3 -3 28 0 -3 -3 -3 -5 6 0 3 1 2 3 3 1 3 2 1 -1 2 -1 2 1 3 0 2 2 24 0 1 -1 2 -2 1 0 1 1 1 2 1 -1 0 -2 1 -2 -1 -2 1 -1 10 1 0 4 1 3 8 0 1 -7 2 0 2 5 2 2 98 0 1 -3 -2 -6 -1 -3 -2 -1 -2 -1 -2 -3 -82 0 2 4 1 2 2 2 -5 0 0 -2 -2 -1 -2 -1 -1 -1 -3 -2 0 2 -5 -1 -1 -1 -1 -1 -44 0 -1 3 -2 1 -3 4 -6 0 -4 -5 -1 -3 -5 0 0 4 1 4 -3 0 -1 -4 -2 -1 -1 -3 -35 0 -2 -3 33 0 -1 -1 -2 -3 -1 -3 -1 -4 0 -3 -1 -3 -31 0 -1 -3 30 0 -5 -2 -1 0 0 -1 0 0 -1 0 0 -1 -1 -1 0 0 0 -1 0 0 -1 -1 0 0 -3 -2 0 1 -4 -3 0 0 0 -2 -1 0 -2 -1 -1 0 -1 0 -1 0 -1 1 -1 1 -1 1 -2 4 0 1 0 1 0 0 -1 1 0 1 -1 0 -1 1 0 -1 0 -1 0 -1 0 -1 -1 -1 0 -1 0 -1 0 -1 0 -1 0 -2 0 0 0 -1 0 -2 0 -1 0 -1 0 -1 0 -4 0 -5 1 -10 2 -9 2 -8 3 -9 3 -8 4 -8 5 -8 5 -7 6 -6 6 -7 6 -6 7 -5 8 -5 7 -4 9 -4 27 2 0 2 -3 0 -3 0 -4 -1 -1 1 1 2 0 0 2 1 1 0 1 2 0 1 20 0 3 -2 -2 -2 0 -2 1 -2 12 -3 2 -1 4 0 3 1 7 2 30 -1 2 1 1 0 2 1 2 1 1 1 2 1 2 1 1 1 1 1 2 1 1 1 2 1 1 1 2 1 2 2 0 0 -9 1 -1 -1 -3 0 -2 2 0 1 2 1 1 1 1 1 6 2 2 1 1 2 1 1 4 0 0 0 0 -1 0 -2 0 -1 0 -2 1 -2 0 -1 1 0 1 1 2 1 1 1 0 1 2 1 1 1 1 0 0 1 2 2 1 0 1 1 1 1 1 1 0 2 2 1 1 0 -1 3 2 1 1 1 0 3 -2 0 -1 -1 -2 -1 -2 2 -4 3 -2 4 -1 3 24 0 1 3 -28 0 0 0 -2 4 0 3 -2 3 0 3 0 2 1 2 40 0 0 3 -65 0 -1 4 1 3 1 3 1 2 0 1 2 0 3 -1 0 -2 2 -1 5 1 -1 3 1 4 0 0 24 0zm-19 -10l2 -1 2 -1 1 1 4 1 6 3 -1 1 -2 1 -1 0 -2 -1 -2 0 -7 -4zm-65 -67l-4 0 -1 0 -1 0 -2 0 -3 2 -4 3 -2 2 -5 0 2 -4 2 -1 0 -1 -2 -1 0 0 -25 0 -1 1 0 1 0 1 1 0 2 2 0 1 8 4 0 2 0 1 1 1 1 2 46 0 0 0 0 -3 -2 -2 -2 -2 -2 -4 0 -2 -1 -1 -4 -1 -2 -1zm12 20l-69 0 1 1 1 2 1 2 1 2 4 3 -1 1 -1 0 -1 0 -1 -2 -5 0 0 2 -1 3 -1 1 -1 2 9 0 0 -1 1 0 0 -1 0 0 1 0 0 0 1 0 0 0 1 0 0 0 1 1 1 0 0 0 0 0 1 0 0 0 1 0 0 -1 1 0 0 0 1 1 1 0 0 0 0 1 53 0 -1 -1 -1 -7 1 -3 1 -6zm1 20l-61 0 0 0 0 1 -1 1 0 1 0 0 0 1 -1 0 -1 0 0 -1 0 0 0 -1 0 -2 0 0 -16 0 0 1 0 2 0 2 1 2 1 3 6 7 7 0 0 -1 0 -1 0 0 1 -1 0 0 0 -1 0 0 1 -1 0 0 0 -1 0 0 1 -1 0 -1 3 -3 0 -1 0 -1 0 0 0 -1 1 -1 0 0 1 -1 0 0 1 1 0 0 0 1 1 1 0 0 0 1 0 1 -2 3 -2 8 65 0 -1 -8 -1 -4 -4 -5zm11 17l2 0 -1 -1 -2 -4 0 4 1 1zm22 0l21 0 0 -3 0 -2 -2 -3 -15 0 -3 2 -1 2 0 4zm-51 -81l-2 0 -1 0 -1 0 -2 0 -2 0 -3 0 -2 0 -2 1 -2 0 -3 0 -2 0 -2 1 -2 0 -2 0 -2 0 -2 1 -2 0 -1 1 66 0 -1 -1 -1 0 -2 0 -2 -1 -2 0 -2 0 -2 -1 -2 0 -2 0 -2 0 -2 -1 -2 0 -1 0 -2 0 -2 0 -2 0 -2 0zm-55 24l6 0 1 1 1 1 1 0 2 1 0 1 1 1 1 1 4 3 1 2 1 1 1 1 1 3 -23 0 -2 -1 -1 -2 -2 2 -5 0 -1 -1 -1 1 -2 -1 -1 -1 0 -1 0 -3 5 -3 1 -2 3 0 2 -1 2 0 2 0 1 0 1 -1 0 -2zm-5 57l0 -2 -1 -1 -1 1 -2 0 0 -1 0 -3 -3 -2 -13 0 0 1 1 2 0 0 1 1 1 0 1 1 1 0 1 0 1 0 1 0 0 0 1 0 2 1 0 1 0 1 9 0zm-19 44l-3 1 1 0 -1 1 0 0 0 1 0 0 -1 1 0 0 0 0 0 1 1 0 0 1 0 0 1 1 0 0 4 2 0 0 1 1 0 1 0 1 0 0 0 1 1 0 0 1 1 0 1 1 0 1 1 0 0 1 145 0 0 -1 1 -2 1 -4 2 -4 2 -3 0 -3 -158 0zm7 20l0 1 0 1 0 1 0 0 0 1 -1 0 0 1 -1 1 0 0 -1 1 0 0 -1 0 0 0 -1 1 0 -1 0 0 -1 0 0 -1 -1 -1 0 0 -1 -1 -1 0 -1 0 0 -1 0 0 -1 0 -1 0 0 -1 -1 0 -1 0 0 0 -1 -1 0 0 0 -1 -2 0 -1 6 1 3 2 4 4 3 0 1 19 0 2 -3 1 -2 -1 -3 5 1 1 2 -1 3 1 2 38 0 1 -2 -1 -1 -6 -2 -1 1 -1 -4 16 0 6 3 4 2 2 2 0 1 80 0 0 -1 -1 -2 -1 -2 -1 -2 -4 -4 -1 -2 0 -1 0 -3 -146 0zm67 40l98 0 1 4 -2 3 2 6 0 4 -88 0 -2 -2 -2 -4 -3 -4 -1 -2 -2 -2 -1 -3zm36 58l-66 0 1 0 1 0 2 1 2 0 2 1 3 0 2 0 3 1 2 0 3 0 2 0 3 0 2 0 2 0 2 0 1 1 1 0 1 0 1 0 1 0 2 -1 1 0 2 0 2 0 2 0 2 0 1 0 3 0 2 -1 2 0 2 0 1 -1 3 0 2 -1 2 0z"/>
 </g>
</svg>
